# xmcd
#
# Track frame offsets:
#	150
#	22192
#	39655
#	56027
#	73982
#	91927
#	109250
#	129005
#	157467
#	177007
#	195680
#	212677
#	234032
#	250645
#	267187
#
# Disc length: 3905 seconds
#
# Revision: 1
# Processed by: cddbd v1.5.2PL0 Copyright (c) Steve Scherf et al.
# Submitted via: audiograbber 1.83.01
#
DISCID=d10f3f0f
DTITLE=Sound Choice - 8423
DYEAR=1900
DGENRE=
TTITLE0=Celine Dion - My Heart Will Go On
TTITLE1=Robyn - Show Me Love
TTITLE2=Bryan Adams - Back To You
TTITLE3=Matchbox 20 - 3 Am
TTITLE4=Collin Ray and Susan Ashton - The Gift
TTITLE5=The Sundays - Summertime
TTITLE6=Beth Nielsen Chapman - Sand And Water
TTITLE7=Oasis - D'You Know What I Mean?
TTITLE8=The Wilsons - Monday Without You
TTITLE9=Sarah McLachlan - Sweet Surrender
TTITLE10=The Pretenders - Goodbye
TTITLE11=Sheryl Crow - Home
TTITLE12=Blues Travelers - Most Precarious
TTITLE13=Shawn Colvin - You And The Mona Lisa
TTITLE14=Patti Labelle - When You Talk About Love
EXTD=
EXTT0=
EXTT1=
EXTT2=
EXTT3=
EXTT4=
EXTT5=
EXTT6=
EXTT7=
EXTT8=
EXTT9=
EXTT10=
EXTT11=
EXTT12=
EXTT13=
EXTT14=
PLAYORDER=
